<svg xmlns="http://www.w3.org/2000/svg" xmlns:svg="http://www.w3.org/2000/svg" id="svg2" width="512" height="512" version="1.1"><metadata id="metadata7"/><g id="layer1" transform="translate(0,-540.36218)" style="display:inline"><rect style="fill:none;stroke:#212121;stroke-width:25.25300026;stroke-linecap:round;stroke-linejoin:round;stroke-miterlimit:4;stroke-dasharray:none;stroke-opacity:1;filter:url(#filter6193)" id="rect4002" width="120.473" height="207.098" x="196.853" y="645.322" rx="60.236" ry="39.075"/><path style="display:inline;fill:none;stroke:#212121;stroke-width:24.20985985;stroke-linecap:round;stroke-linejoin:round;stroke-miterlimit:4;stroke-dasharray:none;stroke-dashoffset:0;stroke-opacity:1;filter:url(#filter6235)" id="path6551" d="m 369.31074,-227.85084 a 100.40247,123.84208 0 0 1 -97.38863,100.01772 100.40247,123.84208 0 0 1 -99.20431,-97.26497" transform="matrix(1.1636618,0.00779593,-0.00502725,0.9163318,-58.867622,1020.0462)"/><rect style="display:inline;fill:#212121;fill-opacity:1;stroke:#212121;stroke-width:3.51724958;stroke-linecap:round;stroke-linejoin:bevel;stroke-miterlimit:4;stroke-dasharray:none;stroke-opacity:1;filter:url(#filter6207)" id="rect6559" width="21.805" height="18.183" x="246.861" y="923.149"/><path style="opacity:1;fill:#212121;fill-opacity:1;fill-rule:evenodd;stroke:none;stroke-width:34.0728035;stroke-linecap:round;stroke-linejoin:round;stroke-miterlimit:4;stroke-dasharray:none;stroke-dashoffset:0;stroke-opacity:1;paint-order:markers stroke fill" id="path817" d="m 330.05173,-977.32422 a 72.267242,29.900684 0 0 1 -36.49193,25.97978 72.267242,29.900684 0 0 1 -72.62199,-0.25762 72.267242,29.900684 0 0 1 -35.40994,-26.23484 l 72.25661,0.51268 z" transform="scale(1,-1)"/></g></svg>