<svg xmlns="http://www.w3.org/2000/svg" xmlns:xlink="http://www.w3.org/1999/xlink" width="860pt" height="593pt" viewBox="0 0 860 593"><g id="graph0" class="graph" transform="scale(1 1) rotate(0) translate(4 589)"><title>G</title><polygon fill="#fff" stroke="transparent" points="-4 4 -4 -589 856 -589 856 4 -4 4"/><g id="clust1" class="cluster"><title>cluster_0</title><polygon fill="#add8e6" stroke="#add8e6" points="538 -506 538 -577 812 -577 812 -506 538 -506"/><text x="594" y="-565" fill="#000" font-family="Helvetica,sans-Serif" font-size="10" text-anchor="middle">Cloud speech servers</text></g><g id="clust2" class="cluster"><title>cluster_1</title><polygon fill="none" stroke="#000" stroke-dasharray="1 5" points="408 -407 408 -478 816 -478 816 -407 408 -407"/><text x="470" y="-466" fill="#000" font-family="Helvetica,sans-Serif" font-size="10" text-anchor="middle">Android speech services</text></g><g id="clust3" class="cluster"><title>cluster_2</title><polygon fill="none" stroke="#000" stroke-dasharray="1 5" points="8 -171 8 -242 277 -242 277 -171 8 -171"/><text x="92.5" y="-230" fill="#000" font-family="Helvetica,sans-Serif" font-size="10" text-anchor="middle">Android RecognizerIntent activities</text></g><g id="clust4" class="cluster"><title>cluster_3</title><polygon fill="none" stroke="#000" stroke-dasharray="1 5" points="285 -171 285 -242 613 -242 613 -171 285 -171"/><text x="332.5" y="-230" fill="#000" font-family="Helvetica,sans-Serif" font-size="10" text-anchor="middle">Android IME apps</text></g><g id="clust5" class="cluster"><title>cluster_4</title><polygon fill="#d3d3d3" stroke="#d3d3d3" points="428 -8 428 -79 699 -79 699 -8 428 -8"/><text x="465" y="-67" fill="#000" font-family="Helvetica,sans-Serif" font-size="10" text-anchor="middle">Android apps</text></g><g id="node1" class="node"><title>Kõnele View</title><polygon fill="#ff0" stroke="#000" points="412 -305 288 -305 288 -301 284 -301 284 -297 288 -297 288 -277 284 -277 284 -273 288 -273 288 -269 412 -269 412 -305"/><polyline fill="none" stroke="#000" points="288 -301 292 -301 292 -297 288 -297"/><polyline fill="none" stroke="#000" points="288 -277 292 -277 292 -273 288 -273"/><text x="350" y="-290" fill="#000" font-family="Helvetica,sans-Serif" font-size="10" text-anchor="middle">Kõnele mic+swipe editor</text><text x="350" y="-279" fill="#000" font-family="Helvetica,sans-Serif" font-size="10" text-anchor="middle">(view component)</text></g><g id="node11" class="node"><title>panel</title><polygon fill="#ff0" stroke="#000" points="268.5 -215 137.5 -215 137.5 -179 268.5 -179 268.5 -215"/><text x="203" y="-194.5" fill="#000" font-family="Helvetica,sans-Serif" font-size="10" text-anchor="middle">Kõnele voice search panel</text></g><g id="edge10" class="edge"><title>Kõnele View-&gt;panel</title><path fill="none" stroke="#000" d="M320.2524,-268.7872C296.4421,-254.2095 263.0006,-233.735 237.9216,-218.3806"/><polygon fill="#000" stroke="#000" points="238.917 -216.528 232.703 -215.186 236.724 -220.11 238.917 -216.528"/></g><g id="node12" class="node"><title>Kõnele IME</title><polygon fill="#ff0" stroke="#000" points="407 -215 293 -215 293 -179 407 -179 407 -215"/><text x="350" y="-194.5" fill="#000" font-family="Helvetica,sans-Serif" font-size="10" text-anchor="middle">Kõnele speak &amp; swipe</text></g><g id="edge9" class="edge"><title>Kõnele View-&gt;Kõnele IME</title><path fill="none" stroke="#000" d="M350,-268.7872C350,-255.1244 350,-236.2818 350,-221.3293"/><polygon fill="#000" stroke="#000" points="352.1 -221.186 350 -215.186 347.9 -221.186 352.1 -221.186"/></g><g id="node2" class="node"><title>kaldi</title><polygon fill="none" stroke="#000" points="659.5 -550 546.5 -550 546.5 -514 659.5 -514 659.5 -550"/><text x="603" y="-529.5" fill="#000" font-family="Helvetica,sans-Serif" font-size="10" text-anchor="middle">kaldi-gstreamer-server</text></g><g id="node5" class="node"><title>Kõnele fast</title><polygon fill="#ff0" stroke="#000" points="660 -451 538 -451 538 -415 660 -415 660 -451"/><text x="599" y="-430.5" fill="#000" font-family="Helvetica,sans-Serif" font-size="10" text-anchor="middle">Kõnele (fast recognition)</text></g><g id="edge1" class="edge"><title>kaldi-&gt;Kõnele fast</title><path fill="none" stroke="#000" d="M602.2663,-513.8419C601.6235,-497.9328 600.6843,-474.6863 599.9778,-457.2003"/><polygon fill="#000" stroke="#000" points="602.07 -456.953 599.729 -451.043 597.873 -457.123 602.07 -456.953"/><text x="627.5" y="-488.8" fill="#000" font-family="monospace" font-size="9" text-anchor="middle">WebSockets</text></g><g id="node3" class="node"><title>pocketsphinx</title><polygon fill="none" stroke="#000" points="804 -550 678 -550 678 -514 804 -514 804 -550"/><text x="741" y="-529.5" fill="#000" font-family="Helvetica,sans-Serif" font-size="10" text-anchor="middle">ruby-pocketsphinx-server</text></g><g id="node6" class="node"><title>Kõnele grammar</title><polygon fill="#ff0" stroke="#000" points="807.5 -451 678.5 -451 678.5 -415 807.5 -415 807.5 -451"/><text x="743" y="-430.5" fill="#000" font-family="Helvetica,sans-Serif" font-size="10" text-anchor="middle">Kõnele (grammar support)</text></g><g id="edge2" class="edge"><title>pocketsphinx-&gt;Kõnele grammar</title><path fill="none" stroke="#000" d="M741.3668,-513.8419C741.6882,-497.9328 742.1579,-474.6863 742.5111,-457.2003"/><polygon fill="#000" stroke="#000" points="744.614 -457.084 742.635 -451.043 740.415 -456.999 744.614 -457.084"/><text x="796.5" y="-488.8" fill="#000" font-family="monospace" font-size="9" text-anchor="middle">net-speech-api (HTTP)</text></g><g id="node4" class="node"><title>other_service</title><polygon fill="none" stroke="#000" points="519.5 -451 416.5 -451 416.5 -415 519.5 -415 519.5 -451"/><text x="468" y="-436" fill="#000" font-family="Helvetica,sans-Serif" font-size="10" text-anchor="middle">some other service:</text><text x="468" y="-425" fill="#000" font-family="Helvetica,sans-Serif" font-size="10" text-anchor="middle">Google, ...</text></g><g id="node7" class="node"><title>Android SpeechRecognizer</title><polygon fill="#32cd32" stroke="#000" points="608.007 -342.049 613.971 -342.148 619.872 -342.295 625.688 -342.491 631.395 -342.735 636.97 -343.027 642.39 -343.365 647.635 -343.748 652.684 -344.176 657.52 -344.647 662.125 -345.161 666.482 -345.715 670.577 -346.308 674.397 -346.939 677.93 -347.605 681.168 -348.306 684.102 -349.038 686.726 -349.801 689.035 -350.592 691.026 -351.408 692.698 -352.248 694.051 -353.109 695.087 -353.989 695.81 -354.886 696.224 -355.796 696.336 -356.719 696.152 -357.65 695.681 -358.587 694.933 -359.529 693.917 -360.471 692.646 -361.413 691.13 -362.35 689.383 -363.281 687.416 -364.204 685.243 -365.114 682.877 -366.011 680.332 -366.891 677.62 -367.752 674.754 -368.592 671.747 -369.408 668.612 -370.199 665.361 -370.962 662.005 -371.694 658.555 -372.395 655.021 -373.061 651.413 -373.692 647.74 -374.285 644.011 -374.839 640.233 -375.353 636.412 -375.824 632.556 -376.252 628.67 -376.635 624.759 -376.973 620.828 -377.265 616.88 -377.509 612.919 -377.705 608.949 -377.852 604.972 -377.951 600.991 -378 597.009 -378 593.028 -377.951 589.051 -377.852 585.081 -377.705 581.12 -377.509 577.172 -377.265 573.241 -376.973 569.33 -376.635 565.444 -376.252 561.588 -375.824 557.767 -375.353 553.989 -374.839 550.26 -374.285 546.587 -373.692 542.979 -373.061 539.445 -372.395 535.995 -371.694 532.639 -370.962 529.388 -370.199 526.253 -369.408 523.246 -368.592 520.38 -367.752 517.668 -366.891 515.123 -366.011 512.757 -365.114 510.584 -364.204 508.617 -363.281 506.87 -362.35 505.354 -361.413 504.083 -360.471 503.067 -359.529 502.319 -358.587 501.848 -357.65 501.664 -356.719 501.776 -355.796 502.19 -354.886 502.913 -353.989 503.949 -353.109 505.302 -352.248 506.974 -351.408 508.965 -350.592 511.274 -349.801 513.898 -349.038 516.832 -348.306 520.07 -347.605 523.603 -346.939 527.423 -346.308 531.518 -345.715 535.875 -345.161 540.48 -344.647 545.316 -344.176 550.365 -343.748 555.61 -343.365 561.03 -343.027 566.605 -342.735 572.312 -342.491 578.128 -342.295 584.029 -342.148 589.993 -342.049 595.994 -342 602.006 -342 608.007 -342.049"/><text x="599" y="-357.5" fill="#000" font-family="Helvetica,sans-Serif" font-size="10" text-anchor="middle">Android SpeechRecognizer API</text></g><g id="edge5" class="edge"><title>other_service-&gt;Android SpeechRecognizer</title><path fill="none" stroke="#000" d="M500.382,-414.9551C519.4967,-404.3034 543.7178,-390.8061 563.3722,-379.8537"/><polygon fill="#000" stroke="#000" points="564.568 -381.592 568.787 -376.837 562.523 -377.923 564.568 -381.592"/></g><g id="edge3" class="edge"><title>Kõnele fast-&gt;Android SpeechRecognizer</title><path fill="none" stroke="#000" d="M599,-414.9551C599,-405.6545 599,-394.1844 599,-384.1332"/><polygon fill="#000" stroke="#000" points="601.1 -384.09 599 -378.09 596.9 -384.09 601.1 -384.09"/></g><g id="edge4" class="edge"><title>Kõnele grammar-&gt;Android SpeechRecognizer</title><path fill="none" stroke="#000" d="M707.4045,-414.9551C686.0598,-404.1345 658.9225,-390.3774 637.1396,-379.3346"/><polygon fill="#000" stroke="#000" points="638.025 -377.429 631.724 -376.589 636.126 -381.175 638.025 -377.429"/></g><g id="edge8" class="edge"><title>Android SpeechRecognizer-&gt;Kõnele View</title><path fill="none" stroke="#000" d="M544.9707,-344.1601C507.6167,-333.2089 457.6432,-318.558 417.6422,-306.8308"/><polygon fill="#000" stroke="#000" points="418.164 -304.796 411.815 -305.123 416.982 -308.826 418.164 -304.796"/></g><g id="node14" class="node"><title>other_ime</title><polygon fill="none" stroke="#000" points="605 -215 497 -215 497 -179 605 -179 605 -215"/><text x="551" y="-194.5" fill="#000" font-family="Helvetica,sans-Serif" font-size="10" text-anchor="middle">some other keyboard</text></g><g id="edge12" class="edge"><title>Android SpeechRecognizer-&gt;other_ime</title><path fill="none" stroke="#000" stroke-dasharray="5 2" d="M592.3426,-341.7723C588.5402,-331.113 583.7902,-317.363 580,-305 571.2096,-276.3268 562.4684,-242.9328 556.9178,-220.9557"/><polygon fill="#000" stroke="#000" points="558.939 -220.38 555.439 -215.073 554.865 -221.404 558.939 -220.38"/><text x="599.5" y="-284.8" fill="#000" font-family="Verdana" font-size="9" text-anchor="middle">(maybe)</text></g><g id="node16" class="node"><title>Google Translate</title><polygon fill="none" stroke="#000" points="618.5 -52 527.5 -52 527.5 -16 618.5 -16 618.5 -52"/><text x="573" y="-31.5" fill="#000" font-family="Helvetica,sans-Serif" font-size="10" text-anchor="middle">Google Translate</text></g><g id="edge14" class="edge"><title>Android SpeechRecognizer-&gt;Google Translate</title><path fill="none" stroke="#000" d="M612.8291,-341.8685C622.2422,-327.7135 633,-307.1324 633,-287 633,-287 633,-287 633,-124 633,-97.7374 615.0937,-73.3096 598.8453,-56.5497"/><polygon fill="#000" stroke="#000" points="600.051 -54.786 594.323 -52.031 597.083 -57.757 600.051 -54.786"/></g><g id="node17" class="node"><title>Arvutaja</title><polygon fill="none" stroke="#000" points="691 -52 637 -52 637 -16 691 -16 691 -52"/><text x="664" y="-31.5" fill="#000" font-family="Helvetica,sans-Serif" font-size="10" text-anchor="middle">Arvutaja</text></g><g id="edge11" class="edge"><title>Android SpeechRecognizer-&gt;Arvutaja</title><path fill="none" stroke="#000" d="M632.0498,-342.5971C650.9774,-330.0176 671,-311.0312 671,-287 671,-287 671,-287 671,-124 671,-101.8067 668.8581,-76.6275 666.9439,-58.5566"/><polygon fill="#000" stroke="#000" points="668.993 -57.975 666.253 -52.239 664.818 -58.432 668.993 -57.975"/></g><g id="node8" class="node"><title>Android RecognizerIntent</title><polygon fill="#32cd32" stroke="#000" points="211.472 -106.049 217.081 -106.148 222.632 -106.295 228.102 -106.491 233.47 -106.735 238.713 -107.027 243.811 -107.365 248.745 -107.748 253.494 -108.176 258.043 -108.647 262.373 -109.161 266.471 -109.715 270.323 -110.308 273.916 -110.939 277.24 -111.605 280.285 -112.306 283.045 -113.038 285.513 -113.801 287.684 -114.592 289.557 -115.408 291.13 -116.248 292.403 -117.109 293.377 -117.989 294.057 -118.886 294.447 -119.796 294.552 -120.719 294.378 -121.65 293.936 -122.587 293.232 -123.529 292.277 -124.471 291.081 -125.413 289.655 -126.35 288.012 -127.281 286.162 -128.203 284.118 -129.114 281.893 -130.011 279.498 -130.891 276.947 -131.752 274.252 -132.592 271.424 -133.408 268.476 -134.199 265.418 -134.962 262.261 -135.694 259.016 -136.395 255.692 -137.061 252.298 -137.692 248.844 -138.285 245.336 -138.839 241.782 -139.353 238.189 -139.824 234.562 -140.252 230.907 -140.636 227.228 -140.973 223.531 -141.265 219.817 -141.509 216.092 -141.705 212.358 -141.852 208.617 -141.951 204.873 -142 201.127 -142 197.383 -141.951 193.642 -141.852 189.908 -141.705 186.183 -141.509 182.469 -141.265 178.772 -140.973 175.093 -140.636 171.438 -140.252 167.811 -139.824 164.218 -139.353 160.664 -138.839 157.156 -138.285 153.702 -137.692 150.308 -137.061 146.984 -136.395 143.739 -135.694 140.583 -134.962 137.524 -134.199 134.576 -133.408 131.748 -132.592 129.053 -131.752 126.501 -130.891 124.107 -130.011 121.882 -129.114 119.838 -128.203 117.988 -127.281 116.345 -126.35 114.919 -125.413 113.723 -124.471 112.768 -123.529 112.064 -122.587 111.621 -121.65 111.448 -120.719 111.553 -119.796 111.943 -118.886 112.623 -117.989 113.597 -117.109 114.87 -116.248 116.443 -115.408 118.316 -114.592 120.487 -113.801 122.955 -113.038 125.715 -112.306 128.76 -111.605 132.084 -110.939 135.677 -110.308 139.529 -109.715 143.627 -109.161 147.957 -108.647 152.506 -108.176 157.255 -107.748 162.189 -107.365 167.287 -107.027 172.53 -106.735 177.898 -106.491 183.368 -106.295 188.919 -106.148 194.528 -106.049 200.172 -106 205.828 -106 211.472 -106.049"/><text x="203" y="-121.5" fill="#000" font-family="Helvetica,sans-Serif" font-size="10" text-anchor="middle">Android RecognizerIntent API</text></g><g id="node15" class="node"><title>Google Keep</title><polygon fill="none" stroke="#000" points="509.5 -52 436.5 -52 436.5 -16 509.5 -16 509.5 -52"/><text x="473" y="-31.5" fill="#000" font-family="Helvetica,sans-Serif" font-size="10" text-anchor="middle">Google Keep</text></g><g id="edge13" class="edge"><title>Android RecognizerIntent-&gt;Google Keep</title><path fill="none" stroke="#000" d="M251.2706,-107.9098C302.2858,-90.9047 381.9556,-64.3481 430.6208,-48.1264"/><polygon fill="#000" stroke="#000" points="431.37 -50.09 436.398 -46.201 430.042 -46.106 431.37 -50.09"/></g><g id="node9" class="node"><title>IME</title><polygon fill="#32cd32" stroke="#000" points="480.075 -106.049 484.76 -106.148 489.396 -106.295 493.965 -106.491 498.447 -106.735 502.827 -107.027 507.084 -107.365 511.204 -107.748 515.171 -108.176 518.97 -108.647 522.587 -109.161 526.009 -109.715 529.226 -110.308 532.227 -110.939 535.003 -111.605 537.546 -112.306 539.851 -113.038 541.912 -113.801 543.726 -114.592 545.29 -115.408 546.603 -116.248 547.666 -117.109 548.48 -117.989 549.048 -118.886 549.373 -119.796 549.461 -120.719 549.316 -121.65 548.947 -122.587 548.359 -123.529 547.561 -124.471 546.562 -125.413 545.372 -126.35 543.999 -127.281 542.454 -128.203 540.747 -129.114 538.889 -130.011 536.889 -130.891 534.759 -131.752 532.507 -132.592 530.146 -133.408 527.683 -134.199 525.129 -134.962 522.493 -135.694 519.782 -136.395 517.006 -137.061 514.172 -137.692 511.287 -138.285 508.358 -138.839 505.39 -139.353 502.389 -139.824 499.36 -140.252 496.307 -140.636 493.235 -140.973 490.147 -141.265 487.045 -141.509 483.934 -141.705 480.815 -141.852 477.691 -141.951 474.564 -142 471.436 -142 468.309 -141.951 465.185 -141.852 462.066 -141.705 458.955 -141.509 455.853 -141.265 452.765 -140.973 449.693 -140.636 446.64 -140.252 443.611 -139.824 440.61 -139.353 437.642 -138.839 434.713 -138.285 431.828 -137.692 428.993 -137.061 426.218 -136.395 423.507 -135.694 420.871 -134.962 418.317 -134.199 415.854 -133.408 413.493 -132.592 411.241 -131.752 409.111 -130.891 407.111 -130.011 405.253 -129.114 403.546 -128.203 402.001 -127.281 400.628 -126.35 399.438 -125.413 398.439 -124.471 397.641 -123.529 397.053 -122.587 396.684 -121.65 396.539 -120.719 396.627 -119.796 396.952 -118.886 397.52 -117.989 398.334 -117.109 399.397 -116.248 400.71 -115.408 402.274 -114.592 404.088 -113.801 406.149 -113.038 408.454 -112.306 410.997 -111.605 413.773 -110.939 416.774 -110.308 419.991 -109.715 423.413 -109.161 427.03 -108.647 430.829 -108.176 434.796 -107.748 438.916 -107.365 443.173 -107.027 447.553 -106.735 452.035 -106.491 456.604 -106.295 461.24 -106.148 465.925 -106.049 470.638 -106 475.362 -106 480.075 -106.049"/><text x="473" y="-121.5" fill="#000" font-family="Helvetica,sans-Serif" font-size="10" text-anchor="middle">Input Method Editor API</text></g><g id="edge18" class="edge"><title>IME-&gt;Google Keep</title><path fill="none" stroke="#000" d="M473,-105.7872C473,-92.1244 473,-73.2818 473,-58.3293"/><polygon fill="#000" stroke="#000" points="475.1 -58.186 473 -52.186 470.9 -58.186 475.1 -58.186"/></g><g id="edge19" class="edge"><title>IME-&gt;Google Translate</title><path fill="none" stroke="#000" d="M492.7568,-106.2189C508.6775,-91.8903 531.151,-71.6641 548.2665,-56.2601"/><polygon fill="#000" stroke="#000" points="549.887 -57.627 552.942 -52.052 547.077 -54.505 549.887 -57.627"/></g><g id="node10" class="node"><title>other_activity</title><polygon fill="none" stroke="#000" points="119.5 -215 16.5 -215 16.5 -179 119.5 -179 119.5 -215"/><text x="68" y="-200" fill="#000" font-family="Helvetica,sans-Serif" font-size="10" text-anchor="middle">some other activity:</text><text x="68" y="-189" fill="#000" font-family="Helvetica,sans-Serif" font-size="10" text-anchor="middle">Google, ...</text></g><g id="edge7" class="edge"><title>other_activity-&gt;Android RecognizerIntent</title><path fill="none" stroke="#000" d="M101.3708,-178.9551C121.2966,-168.1803 146.6071,-154.4939 166.9843,-143.4752"/><polygon fill="#000" stroke="#000" points="168.043 -145.29 172.322 -140.589 166.045 -141.596 168.043 -145.29"/></g><g id="edge6" class="edge"><title>panel-&gt;Android RecognizerIntent</title><path fill="none" stroke="#000" d="M203,-178.9551C203,-169.6545 203,-158.1844 203,-148.1332"/><polygon fill="#000" stroke="#000" points="205.1 -148.09 203 -142.09 200.9 -148.09 205.1 -148.09"/></g><g id="edge16" class="edge"><title>Kõnele IME-&gt;IME</title><path fill="none" stroke="#000" d="M380.4045,-178.9551C398.4563,-168.2414 421.3588,-154.6489 439.8698,-143.6626"/><polygon fill="#000" stroke="#000" points="441.375 -145.211 445.463 -140.343 439.232 -141.599 441.375 -145.211"/></g><g id="node13" class="node"><title>Gboard</title><polygon fill="none" stroke="#000" points="479 -215 425 -215 425 -179 479 -179 479 -215"/><text x="452" y="-194.5" fill="#000" font-family="Helvetica,sans-Serif" font-size="10" text-anchor="middle">Gboard</text></g><g id="edge15" class="edge"><title>Gboard-&gt;IME</title><path fill="none" stroke="#000" d="M457.191,-178.9551C459.8665,-169.6545 463.1661,-158.1844 466.0576,-148.1332"/><polygon fill="#000" stroke="#000" points="468.155 -148.437 467.796 -142.09 464.119 -147.276 468.155 -148.437"/></g><g id="edge17" class="edge"><title>other_ime-&gt;IME</title><path fill="none" stroke="#000" d="M531.7191,-178.9551C520.8863,-168.8166 507.2989,-156.1003 495.9235,-145.454"/><polygon fill="#000" stroke="#000" points="497.338 -143.901 491.522 -141.335 494.468 -146.968 497.338 -143.901"/></g></g></svg>